{"scene":0,"asset":{"generator":"ImageToStl.com","version":"2.0"},"scenes":[{"name":"Scene","nodes":[0]}],"nodes":[{"name":"Node0","children":[1,2,3,4,5,6,7,8,9,10,11,12,13]},{"name":"Node1","mesh":0},{"name":"Node2","mesh":1},{"name":"Node3","mesh":2},{"name":"Node4","mesh":3},{"name":"Node5","mesh":4},{"name":"Node6","mesh":5},{"name":"Node7","mesh":6},{"name":"Node8","mesh":7},{"name":"Node9","mesh":8},{"name":"Node10","mesh":9},{"name":"Node11","mesh":10},{"name":"Node12","mesh":11},{"name":"Node13","mesh":12}],"materials":[{"name":"Cliff","pbrMetallicRoughness":{"baseColorFactor":[0.8,0.8,0.8,1.0],"metallicFactor":0.5,"roughnessFactor":0.75},"emissiveFactor":[0.0,0.0,0.0],"doubleSided":true}],"meshes":[{"name":"Mesh0","primitives":[{"indices":3,"material":0,"attributes":{"POSITION":0,"NORMAL":1,"TEXCOORD_0":2}}]},{"name":"Mesh0","primitives":[{"indices":7,"material":0,"attributes":{"POSITION":4,"NORMAL":5,"TEXCOORD_0":6}}]},{"name":"Mesh0","primitives":[{"indices":11,"material":0,"attributes":{"POSITION":8,"NORMAL":9,"TEXCOORD_0":10}}]},{"name":"Mesh0","primitives":[{"indices":15,"material":0,"attributes":{"POSITION":12,"NORMAL":13,"TEXCOORD_0":14}}]},{"name":"Mesh0","primitives":[{"indices":19,"material":0,"attributes":{"POSITION":16,"NORMAL":17,"TEXCOORD_0":18}}]},{"name":"Mesh0","primitives":[{"indices":23,"material":0,"attributes":{"POSITION":20,"NORMAL":21,"TEXCOORD_0":22}}]},{"name":"Mesh0","primitives":[{"indices":27,"material":0,"attributes":{"POSITION":24,"NORMAL":25,"TEXCOORD_0":26}}]},{"name":"Mesh0","primitives":[{"indices":31,"material":0,"attributes":{"POSITION":28,"NORMAL":29,"TEXCOORD_0":30}}]},{"name":"Mesh0","primitives":[{"indices":35,"material":0,"attributes":{"POSITION":32,"NORMAL":33,"TEXCOORD_0":34}}]},{"name":"Mesh0","primitives":[{"indices":39,"material":0,"attributes":{"POSITION":36,"NORMAL":37,"TEXCOORD_0":38}}]},{"name":"Mesh0","primitives":[{"indices":43,"material":0,"attributes":{"POSITION":40,"NORMAL":41,"TEXCOORD_0":42}}]},{"name":"Mesh0","primitives":[{"indices":47,"material":0,"attributes":{"POSITION":44,"NORMAL":45,"TEXCOORD_0":46}}]},{"name":"Mesh0","primitives":[{"indices":51,"material":0,"attributes":{"POSITION":48,"NORMAL":49,"TEXCOORD_0":50}}]}],"accessors":[{"bufferView":0,"componentType":5126,"count":184,"type":"VEC3","min":[-11.01161,9.266567,0.083573066],"max":[1.9073486E-06,20.000002,15.027592]},{"bufferView":1,"componentType":5126,"count":184,"type":"VEC3"},{"bufferView":2,"componentType":5126,"count":184,"type":"VEC2"},{"bufferView":3,"componentType":5123,"count":1980,"type":"SCALAR"},{"bufferView":4,"componentType":5126,"count":174,"type":"VEC3","min":[-30.0,10.000002,0.08357326],"max":[-9.999995,30.000006,15.062473]},{"bufferView":5,"componentType":5126,"count":174,"type":"VEC3"},{"bufferView":6,"componentType":5126,"count":174,"type":"VEC2"},{"bufferView":7,"componentType":5123,"count":1908,"type":"SCALAR"},{"bufferView":8,"componentType":5126,"count":222,"type":"VEC3","min":[-70.0,8.073333,0.08357307],"max":[-50.0,20.000006,15.82694]},{"bufferView":9,"componentType":5126,"count":222,"type":"VEC3"},{"bufferView":10,"componentType":5126,"count":222,"type":"VEC2"},{"bufferView":11,"componentType":5123,"count":2529,"type":"SCALAR"},{"bufferView":12,"componentType":5126,"count":230,"type":"VEC3","min":[-50.000004,8.690113,0.083573066],"max":[-30.0,20.000006,15.20389]},{"bufferView":13,"componentType":5126,"count":230,"type":"VEC3"},{"bufferView":14,"componentType":5126,"count":230,"type":"VEC2"},{"bufferView":15,"componentType":5123,"count":2574,"type":"SCALAR"},{"bufferView":16,"componentType":5126,"count":237,"type":"VEC3","min":[-90.0,5.4529276,0.083573334],"max":[-70.0,20.000008,15.177617]},{"bufferView":17,"componentType":5126,"count":237,"type":"VEC3"},{"bufferView":18,"componentType":5126,"count":237,"type":"VEC2"},{"bufferView":19,"componentType":5123,"count":2664,"type":"SCALAR"},{"bufferView":20,"componentType":5126,"count":252,"type":"VEC3","min":[-109.99999,8.626245,0.08357334],"max":[-89.99999,29.999998,15.405244]},{"bufferView":21,"componentType":5126,"count":252,"type":"VEC3"},{"bufferView":22,"componentType":5126,"count":252,"type":"VEC2"},{"bufferView":23,"componentType":5123,"count":2475,"type":"SCALAR"},{"bufferView":24,"componentType":5126,"count":486,"type":"VEC3","min":[-130.0,-2.861023E-06,0.083573066],"max":[-109.99999,30.000004,15.82694]},{"bufferView":25,"componentType":5126,"count":486,"type":"VEC3"},{"bufferView":26,"componentType":5126,"count":486,"type":"VEC2"},{"bufferView":27,"componentType":5123,"count":5733,"type":"SCALAR"},{"bufferView":28,"componentType":5126,"count":485,"type":"VEC3","min":[-150.0,-1.9073486E-06,0.083573066],"max":[-130.0,30.000006,17.543163]},{"bufferView":29,"componentType":5126,"count":485,"type":"VEC3"},{"bufferView":30,"componentType":5126,"count":485,"type":"VEC2"},{"bufferView":31,"componentType":5123,"count":5895,"type":"SCALAR"},{"bufferView":32,"componentType":5126,"count":67,"type":"VEC3","min":[-20.0,-13.727711,0.08357334],"max":[0.0,-6.903504,4.637224]},{"bufferView":33,"componentType":5126,"count":67,"type":"VEC3"},{"bufferView":34,"componentType":5126,"count":67,"type":"VEC2"},{"bufferView":35,"componentType":5123,"count":693,"type":"SCALAR"},{"bufferView":36,"componentType":5126,"count":42,"type":"VEC3","min":[-2.0386055E-07,-11.189514,0.08357275],"max":[11.861018,-9.536743E-07,5.4839425]},{"bufferView":37,"componentType":5126,"count":42,"type":"VEC3"},{"bufferView":38,"componentType":5126,"count":42,"type":"VEC2"},{"bufferView":39,"componentType":5123,"count":405,"type":"SCALAR"},{"bufferView":40,"componentType":5126,"count":43,"type":"VEC3","min":[-40.0,-21.532995,0.08357334],"max":[-19.999998,-8.032723,4.88366]},{"bufferView":41,"componentType":5126,"count":43,"type":"VEC3"},{"bufferView":42,"componentType":5126,"count":43,"type":"VEC2"},{"bufferView":43,"componentType":5123,"count":432,"type":"SCALAR"},{"bufferView":44,"componentType":5126,"count":25,"type":"VEC3","min":[-50.0,-23.790924,0.08357334],"max":[-40.0,-17.903383,5.3350368]},{"bufferView":45,"componentType":5126,"count":25,"type":"VEC3"},{"bufferView":46,"componentType":5126,"count":25,"type":"VEC2"},{"bufferView":47,"componentType":5123,"count":216,"type":"SCALAR"},{"bufferView":48,"componentType":5126,"count":27,"type":"VEC3","min":[-60.000004,-21.326591,0.08357334],"max":[-50.000004,-17.804674,4.751462]},{"bufferView":49,"componentType":5126,"count":27,"type":"VEC3"},{"bufferView":50,"componentType":5126,"count":27,"type":"VEC2"},{"bufferView":51,"componentType":5123,"count":297,"type":"SCALAR"}],"bufferViews":[{"target":34962,"buffer":0,"byteLength":2208,"byteOffset":0},{"target":34962,"buffer":0,"byteLength":2208,"byteOffset":2208},{"target":34962,"buffer":0,"byteLength":1472,"byteOffset":4416},{"target":34963,"buffer":0,"byteLength":3960,"byteOffset":5888},{"target":34962,"buffer":0,"byteLength":2088,"byteOffset":9848},{"target":34962,"buffer":0,"byteLength":2088,"byteOffset":11936},{"target":34962,"buffer":0,"byteLength":1392,"byteOffset":14024},{"target":34963,"buffer":0,"byteLength":3816,"byteOffset":15416},{"target":34962,"buffer":0,"byteLength":2664,"byteOffset":19232},{"target":34962,"buffer":0,"byteLength":2664,"byteOffset":21896},{"target":34962,"buffer":0,"byteLength":1776,"byteOffset":24560},{"target":34963,"buffer":0,"byteLength":5058,"byteOffset":26336},{"target":34962,"buffer":0,"byteLength":2760,"byteOffset":31396},{"target":34962,"buffer":0,"byteLength":2760,"byteOffset":34156},{"target":34962,"buffer":0,"byteLength":1840,"byteOffset":36916},{"target":34963,"buffer":0,"byteLength":5148,"byteOffset":38756},{"target":34962,"buffer":0,"byteLength":2844,"byteOffset":43904},{"target":34962,"buffer":0,"byteLength":2844,"byteOffset":46748},{"target":34962,"buffer":0,"byteLength":1896,"byteOffset":49592},{"target":34963,"buffer":0,"byteLength":5328,"byteOffset":51488},{"target":34962,"buffer":0,"byteLength":3024,"byteOffset":56816},{"target":34962,"buffer":0,"byteLength":3024,"byteOffset":59840},{"target":34962,"buffer":0,"byteLength":2016,"byteOffset":62864},{"target":34963,"buffer":0,"byteLength":4950,"byteOffset":64880},{"target":34962,"buffer":0,"byteLength":5832,"byteOffset":69832},{"target":34962,"buffer":0,"byteLength":5832,"byteOffset":75664},{"target":34962,"buffer":0,"byteLength":3888,"byteOffset":81496},{"target":34963,"buffer":0,"byteLength":11466,"byteOffset":85384},{"target":34962,"buffer":0,"byteLength":5820,"byteOffset":96852},{"target":34962,"buffer":0,"byteLength":5820,"byteOffset":102672},{"target":34962,"buffer":0,"byteLength":3880,"byteOffset":108492},{"target":34963,"buffer":0,"byteLength":11790,"byteOffset":112372},{"target":34962,"buffer":0,"byteLength":804,"byteOffset":124164},{"target":34962,"buffer":0,"byteLength":804,"byteOffset":124968},{"target":34962,"buffer":0,"byteLength":536,"byteOffset":125772},{"target":34963,"buffer":0,"byteLength":1386,"byteOffset":126308},{"target":34962,"buffer":0,"byteLength":504,"byteOffset":127696},{"target":34962,"buffer":0,"byteLength":504,"byteOffset":128200},{"target":34962,"buffer":0,"byteLength":336,"byteOffset":128704},{"target":34963,"buffer":0,"byteLength":810,"byteOffset":129040},{"target":34962,"buffer":0,"byteLength":516,"byteOffset":129852},{"target":34962,"buffer":0,"byteLength":516,"byteOffset":130368},{"target":34962,"buffer":0,"byteLength":344,"byteOffset":130884},{"target":34963,"buffer":0,"byteLength":864,"byteOffset":131228},{"target":34962,"buffer":0,"byteLength":300,"byteOffset":132092},{"target":34962,"buffer":0,"byteLength":300,"byteOffset":132392},{"target":34962,"buffer":0,"byteLength":200,"byteOffset":132692},{"target":34963,"buffer":0,"byteLength":432,"byteOffset":132892},{"target":34962,"buffer":0,"byteLength":324,"byteOffset":133324},{"target":34962,"buffer":0,"byteLength":324,"byteOffset":133648},{"target":34962,"buffer":0,"byteLength":216,"byteOffset":133972},{"target":34963,"buffer":0,"byteLength":594,"byteOffset":134188}],"buffers":[{"byteLength":134784,"uri":"data:application/octet-stream;base64,"}]}